<svg width="64" height="64" viewBox="0 0 64 64" xmlns="http://www.w3.org/2000/svg">
  <defs>
    <linearGradient id="g" x1="0" y1="0" x2="0" y2="1">
      <stop offset="0" stop-color="#FF9F0A"/>
      <stop offset="1" stop-color="#FF453A"/>
    </linearGradient>
  </defs>
  <rect width="64" height="64" rx="14" fill="url(#g)"/>
  <rect x="20" y="20" width="24" height="24" rx="3" fill="none" stroke="white" stroke-width="3.2"/>
  <rect x="27" y="27" width="10" height="10" rx="1.5" fill="white"/>
  <g stroke="white" stroke-width="2.6" stroke-linecap="round">
    <line x1="26" y1="12" x2="26" y2="20"/>
    <line x1="32" y1="12" x2="32" y2="20"/>
    <line x1="38" y1="12" x2="38" y2="20"/>
    <line x1="26" y1="44" x2="26" y2="52"/>
    <line x1="32" y1="44" x2="32" y2="52"/>
    <line x1="38" y1="44" x2="38" y2="52"/>
    <line x1="12" y1="26" x2="20" y2="26"/>
    <line x1="12" y1="32" x2="20" y2="32"/>
    <line x1="12" y1="38" x2="20" y2="38"/>
    <line x1="44" y1="26" x2="52" y2="26"/>
    <line x1="44" y1="32" x2="52" y2="32"/>
    <line x1="44" y1="38" x2="52" y2="38"/>
  </g>
</svg>
