<svg width="64" height="64" viewBox="0 0 64 64" xmlns="http://www.w3.org/2000/svg">
  <defs>
    <linearGradient id="g" x1="0" y1="0" x2="0" y2="1">
      <stop offset="0" stop-color="#64D2FF"/>
      <stop offset="1" stop-color="#0091FF"/>
    </linearGradient>
  </defs>
  <rect width="64" height="64" rx="14" fill="url(#g)"/>
  <g fill="white">
    <path d="M32 32 C32 32 30 18 24 16 C18 14 14 20 16 26 C18 30 28 32 32 32 Z"/>
    <path d="M32 32 C32 32 46 30 48 24 C50 18 44 14 38 16 C34 18 32 28 32 32 Z"/>
    <path d="M32 32 C32 32 34 46 40 48 C46 50 50 44 48 38 C46 34 36 32 32 32 Z"/>
    <path d="M32 32 C32 32 18 34 16 40 C14 46 20 50 26 48 C30 46 32 36 32 32 Z"/>
  </g>
  <circle cx="32" cy="32" r="5" fill="white" stroke="#0091FF" stroke-width="1.5"/>
</svg>
